<svg width="176" height="150" viewBox="0 0 176 150" fill="none" xmlns="http://www.w3.org/2000/svg">
<path d="M0 37C0 16.5655 16.5655 0 37 0H139C159.435 0 176 16.5655 176 37V113C176 133.435 159.435 150 139 150H37C16.5655 150 0 133.435 0 113V37Z" fill="#BA0059"/>
<path d="M31.7307 99V51.4H42.8147L62.5347 83.768H56.6867L75.8627 51.4H86.9467L87.0827 99H74.7067L74.5707 70.236H76.6787L62.3307 94.308H56.3467L41.5907 70.236H44.1747V99H31.7307Z" fill="white"/>
<path d="M96.6096 99V51.4H119.118C124.376 51.4 129 52.3747 132.99 54.324C136.979 56.2734 140.084 59.016 142.306 62.552C144.572 66.088 145.706 70.304 145.706 75.2C145.706 80.0507 144.572 84.2667 142.306 87.848C140.084 91.384 136.979 94.1267 132.99 96.076C129 98.0254 124.376 99 119.118 99H96.6096ZM110.074 88.256H118.574C121.294 88.256 123.651 87.7574 125.646 86.76C127.686 85.7174 129.272 84.2214 130.406 82.272C131.539 80.2774 132.106 77.92 132.106 75.2C132.106 72.4347 131.539 70.0774 130.406 68.128C129.272 66.1787 127.686 64.7054 125.646 63.708C123.651 62.6654 121.294 62.144 118.574 62.144H110.074V88.256Z" fill="white"/>
</svg>
